<?xml version="1.0" encoding="UTF-8"?>
<svg xmlns="http://www.w3.org/2000/svg" version="1.1" xmlns:xlink="http://www.w3.org/1999/xlink" viewBox="0 0 1920 1080">
  <g>
    <path d="M868.06,610.45c62.6,10.58,125.23,21.29,188.19,29.57,9.35,1.12,18.7,2.34,28.1,2.65,14.54-.18,26.98-9.81,36.51-20.01,26.01-28.75,38.45-74.2,19.28-109.7-9.49-17.33-27.1-29.64-46.46-33.26-11.68-2.22-23.64-.85-35.42.06-112.57,9.71-206.23,80.76-312.89,110.88-45.89,12.71-95.97,14.9-141.29-1.22-37.31-12.8-75.58-30.09-100.8-61.59-15.1-18.87-22.47-44.08-17.64-67.99,1.91-10.37,10.85-18.73,21.23-20.26,2.82-.58,6.11-1.12,8.94-1.4,35.15-3.43,69.41,9.47,101.03,23.37,43.46,19.59,84.33,44.52,127.19,65.15,28.3,13.3,58.22,26.41,89.85,27.29,0,0-.62.12-.62.12,0,0,26.61-11.36,26.61-11.36l.14,2.91c-16.71-5.75-32.52-13.6-47.09-23.58-10.88-7.55-20.98-16.48-28.71-27.31-16.59-22.33-4.75-41.69,9.18-61.29,10.37-14.13,21.95-27.18,32.64-41.01,10.73-13.71,20.79-27.91,30.15-42.58,43.1-68.18,73.08-143.71,99.79-219.56,0,0,.54-1.54.54-1.54,0,0,.27-.78.27-.78,1.07-3.18,4.51-5.34,7.83-4.92,0,0,3.27.24,3.27.24,33.1,2.47,77.96,6.8,110.83,5.95,34.78-1.17,68.93-8.97,102.73-16.91,33.91-8.13,67.68-16.96,101.46-25.73,0,0,6.33-1.65,6.33-1.65,0,0,1.58-.41,1.58-.41,0,0,.79-.21.79-.21,1.75-.47,3.85-.29,5.45.65,2.49,1.38,4.04,4.28,3.65,7.13-1.84,10.93-3.54,21.9-5.47,32.78-20.95,120.35-49.3,239.76-87.9,355.7-15.29,45.52-31.88,90.68-51.67,134.46-1.96,3.54-2.25,8-.29,11.61,0,0,24.49,46.27,24.49,46.27-.36.18,98.81,185.56,97.4,185.39-19.08-35.71-106.99-199.11-123.76-230.67-1.11-2.09-1.67-4.46-1.62-6.82.04-2.29.77-4.63,1.8-6.68,1.8-3.96,3.54-7.96,5.28-11.96,63.83-152.91,104-315.01,132.4-477.97,1.88-10.7,3.51-21.55,5.33-32.26.3-1.38-.36-2.79-1.58-3.48-1.02-.6-2.19-.4-3.27-.06,0,0-1.58.41-1.58.41-52.86,13.53-105.47,28.3-159.13,38.56-34.42,6.88-69.93,7.27-104.79,4.34-7.32-.53-55.92-4.28-62-4.68-1.62-.28-3.23.75-3.76,2.25,0,0-.27.76-.27.76l-.54,1.55s-2.17,6.18-2.17,6.18c-32.38,90.15-69.26,180.79-128.8,256.79-10.68,13.77-22.33,26.86-32.64,40.85-5.11,6.98-9.73,14.29-13.36,22.09-5.09,10.35-4.31,23.21,2.31,32.67,12.53,19,31.98,32.22,52.01,42.4,8.95,4.5,18.29,8.32,27.77,11.39,0,0-3.75,1.6-3.75,1.6,0,0-26.63,11.33-26.63,11.33,0,0-.3.13-.3.13,0,0-.32,0-.32,0-96.07-3.17-220.03-125.56-317.75-116.34,0,0-1.46.14-1.46.14,0,0-1.45.21-1.45.21,0,0-2.91.43-2.91.43,0,0-2.88.56-2.88.56-5.7.91-10.82,3.75-14.49,8.16-2.4,2.9-4.05,6.4-4.79,10.09-1.48,7.66-1.8,15.57-.95,23.33,1.67,15.62,8.38,30.39,18.02,42.71,27.53,35.09,79.91,56.77,122.37,67.51,54.65,12.21,111.16.03,162.42-20.07,88.2-34.42,171.91-86.99,268.18-95.37,11.86-.9,23.98-2.26,35.78.02,11.79,2.29,23.01,7.59,32.13,15.44,31.95,27.07,29.58,76.56,9.55,110.12-8.99,15.31-21.35,29.82-38.05,36.85-4.63,1.88-9.69,2.92-14.7,2.62-8.94-.41-17.82-1.57-26.69-2.65-62.62-8.74-126.72-18.66-188.09-30.34h0Z" />
  </g>
</svg>