<svg
  xmlns="http://www.w3.org/2000/svg"
  viewBox="0 0 1920 1080"
  width="1920"
  height="1080"
  preserveAspectRatio="xMidYMid slice"
>
  <g  transform="scale(1)" >
    <g transform="translate(960, 600)">
      <path
        fill="white"
        d="M0,286.25 C0,286.25 -124,541.5 -124,541.5 C-124,541.5 120,541.5 120,541.5 C120,541.5 0,286.25 0,286.25z"
      />
    </g>
    <g transform="translate(960, 900)">
      <path
        fill="white"
        d="M1768,-932 C1768,-932 -1756,-932 -1756,-932 C-1756,-932 -1756,540 -1756,540 C-1756,540 -524.8837890625,845.294189453125 -524.8837890625,845.294189453125 C-524.8837890625,845.294189453125 -0.025999298319220543,-252.60781860351562 -0.025999298319220543,-252.60781860351562 C-0.025999298319220543,-252.60781860351562 528.0709228515625,845.8578491210938 528.0709228515625,845.8578491210938 C528.0709228515625,845.8578491210938 1768,548 1768,548 C1768,548 1768,-932 1768,-932z"
      />
    </g>
  </g>
</svg>