<?xml version="1.0" encoding="UTF-8"?>
<svg xmlns="http://www.w3.org/2000/svg" viewBox="120 145 270 85">
  <g >
    <path d="M134.79,217c0,2.34-1.58,3.74-3.58,4-.62.08-1.1.08-1.8.08h-2.56v5.64h-1.72v-13.8h4.28c.7,0,1.18,0,1.8.08,2.2.28,3.58,1.66,3.58,4ZM132.95,217c0-1.6-.86-2.32-1.84-2.54-.38-.08-.92-.1-1.54-.1h-2.72v5.28h2.72c.62,0,1.16-.02,1.54-.1.98-.22,1.84-.94,1.84-2.54Z"/>
    <path d="M167.46,218.7v.98c-1.35-.09-2.37.71-2.37,2.52v4.53h-1.29v-7.95h1.29v1.25l.72-1.06c.33-.23.73-.36,1.11-.36.21,0,.39.03.54.1Z"/>
    <path d="M196.5,222.75c0,2.23-1.25,4.18-3.95,4.18s-3.94-1.95-3.94-4.18,1.25-4.19,3.94-4.19,3.95,1.94,3.95,4.19ZM195.09,222.75c0-1.88-.93-3.2-2.54-3.2s-2.53,1.32-2.53,3.2.93,3.19,2.53,3.19,2.54-1.33,2.54-3.19Z"/>
    <path d="M226.37,222.63c0,2.94-1.83,4.3-3.88,4.3-.66,0-1.5-.2-1.91-.53l-.52-.78v4.03h-1.29v-10.89h1.29v1.28l.6-.86c.45-.38,1.29-.63,2.1-.63,2.33,0,3.62,1.74,3.62,4.07ZM224.96,222.78c0-1.8-.81-3.22-2.4-3.22-1.32,0-2.5.84-2.5,3.12v.43c0,2.05,1.29,2.83,2.43,2.83,1.39,0,2.47-1.08,2.47-3.17Z"/>
    <path d="M255.12,223.14h-5.76c.12,2.1,1.11,2.8,2.28,2.8,1.04,0,1.88-.64,2.05-1.79h1.35c-.31,1.92-1.83,2.78-3.46,2.78-2.07,0-3.61-1.35-3.61-4.16,0-2.58,1.6-4.21,3.78-4.21s3.41,1.63,3.41,3.96c0,.12,0,.33-.03.62ZM249.38,222.15h4.47c-.12-1.65-.83-2.59-2.13-2.59s-2.19.9-2.34,2.59Z"/>
    <path d="M281.22,218.7v.98c-1.35-.09-2.37.71-2.37,2.52v4.53h-1.29v-7.95h1.29v1.25l.72-1.06c.33-.23.73-.36,1.11-.36.21,0,.39.03.54.1Z"/>
    <path d="M304.76,224.4c0,.27,0,.41.01.62.06.76.38.93,1.38.81v.95c-.38.06-.74.08-1.09.08-.99,0-1.5-.41-1.58-1.4-.01-.21-.01-.54-.01-.99v-4.63h-1.07v-.99h1.07v-1.84h1.29v1.84h1.48v.99h-1.48v4.58Z"/>
    <path d="M330.08,216.99c0,.46-.36.82-.83.82s-.83-.36-.83-.82.36-.83.83-.83.83.36.83.83ZM328.61,226.72v-7.95h1.29v7.95h-1.29Z"/>
    <path d="M359.37,223.14h-5.76c.12,2.1,1.11,2.8,2.28,2.8,1.04,0,1.88-.64,2.05-1.79h1.35c-.31,1.92-1.83,2.78-3.46,2.78-2.07,0-3.61-1.35-3.61-4.16,0-2.58,1.6-4.21,3.78-4.21s3.41,1.63,3.41,3.96c0,.12,0,.33-.03.62ZM353.63,222.15h4.47c-.12-1.65-.83-2.59-2.13-2.59s-2.19.9-2.34,2.59Z"/>
    <path d="M387.05,221.04h-1.35c-.18-.93-.75-1.49-1.68-1.49s-1.32.5-1.32,1.18c0,.79.66,1.11,1.74,1.4,1.83.48,2.7,1.2,2.7,2.55,0,1.5-1.27,2.25-2.96,2.25s-2.88-.75-3.12-2.55h1.35c.21,1.15.95,1.56,1.86,1.56.85,0,1.54-.39,1.54-1.16s-.54-1.17-1.88-1.53c-1.43-.39-2.57-.98-2.57-2.37s1.11-2.33,2.75-2.33c1.79,0,2.76,1.02,2.92,2.48Z"/>
  </g>
  <line  x1="125.95" y1="207.33" x2="384.77" y2="207.33"/>
  <g>
    <path d="M134.65,181.48l-7.17,19.44h-3.03l19.44-50.99h3.69l19.21,50.99h-3.03l-7.32-19.44h-21.8ZM155.56,179.05l-9.9-26.83-10.05,26.83h19.95Z"/>
    <path d="M190.02,181.96h-1.94c-.99-4.22-3.27-6.3-7.25-6.3-3.47,0-6.3,2.03-6.3,5.46s2.73,4.76,6.75,5.71c6,1.39,8.98,3.37,8.98,7.79s-3.82,7-9.03,7-9.18-2.48-9.83-8.44h1.94c.79,5.06,4.02,6.85,8.04,6.85,3.77,0,6.95-1.84,6.95-5.31s-2.03-4.81-7.84-6.2c-4.27-1.04-7.89-2.78-7.89-7.24,0-4.22,3.42-7.2,8.34-7.2,5.56,0,8.39,3.42,9.08,7.89Z"/>
    <path d="M213.05,195.21l-1.24,2.63c-1.79,2.53-4.67,3.77-7.94,3.77-4.91,0-8.19-2.43-8.19-7.15,0-6.05,6.95-8.78,15.63-8.78h1.69v-1.19c0-1.19,0-2.23-.1-3.32-.3-3.52-2.58-5.51-6.7-5.51-3.62,0-7,1.94-7.54,6.5h-1.94c.35-4.66,4.17-8.09,9.48-8.09s8.19,2.53,8.58,6.9c.1,1.29.1,2.13.1,3.42v8.53c0,2.73.15,4.66.45,7.99h-1.93l-.35-5.71ZM213,190.65v-3.37c-7.54-.5-15.23,1.49-15.23,7.1,0,3.52,2.18,5.66,6.55,5.66,5.21,0,8.68-4.32,8.68-9.38Z"/>
    <path d="M233.44,174.22v1.54c-4.71-.35-8.04,2.73-8.04,10.67v14.49h-1.88v-26.15h1.88v5.31l1.39-3.18c1.29-1.79,3.18-2.83,5.31-2.83.5,0,.94.05,1.34.15Z"/>
    <path d="M277.68,163.23h-2.96c-1.11-7.54-6.21-11.9-13.23-11.9-6.21,0-12.86,3.4-12.86,10.27s4.21,9.16,13.82,11.82c10.71,2.88,15.96,6.65,15.96,14.78s-7.17,13.75-16.77,13.75-17.29-4.8-18.4-14.63h2.96c1.11,7.91,7.69,12.19,15.52,12.19s13.67-4.36,13.67-10.86c0-7.02-4.14-9.83-14.11-12.56-10.49-2.81-15.67-6.06-15.67-14.04s7.39-13.15,16.11-13.15c9.75,0,15,6.43,15.96,14.34Z"/>
    <path d="M303.74,195.21l-1.24,2.63c-1.79,2.53-4.67,3.77-7.94,3.77-4.91,0-8.19-2.43-8.19-7.15,0-6.05,6.95-8.78,15.63-8.78h1.69v-1.19c0-1.19,0-2.23-.1-3.32-.3-3.52-2.58-5.51-6.7-5.51-3.62,0-7,1.94-7.54,6.5h-1.94c.35-4.66,4.17-8.09,9.48-8.09s8.19,2.53,8.58,6.9c.1,1.29.1,2.13.1,3.42v8.53c0,2.73.15,4.66.45,7.99h-1.93l-.35-5.71ZM303.69,190.65v-3.37c-7.54-.5-15.23,1.49-15.23,7.1,0,3.52,2.18,5.66,6.55,5.66,5.21,0,8.68-4.32,8.68-9.38Z"/>
    <path d="M331.72,200.92h-20.34v-1.49l17.81-22.68h-16.52v-1.64h18.86v1.59l-17.86,22.68h18.06v1.54Z"/>
    <path d="M353.95,195.21l-1.24,2.63c-1.79,2.53-4.67,3.77-7.94,3.77-4.91,0-8.19-2.43-8.19-7.15,0-6.05,6.95-8.78,15.63-8.78h1.69v-1.19c0-1.19,0-2.23-.1-3.32-.3-3.52-2.58-5.51-6.7-5.51-3.62,0-7,1.94-7.54,6.5h-1.94c.35-4.66,4.17-8.09,9.48-8.09s8.19,2.53,8.58,6.9c.1,1.29.1,2.13.1,3.42v8.53c0,2.73.15,4.66.45,7.99h-1.93l-.35-5.71ZM353.9,190.65v-3.37c-7.54-.5-15.23,1.49-15.23,7.1,0,3.52,2.18,5.66,6.55,5.66,5.21,0,8.68-4.32,8.68-9.38Z"/>
    <path d="M384.62,186.33v14.59h-1.89v-14.14c0-1.74-.05-2.88-.2-4.22-.45-4.07-2.68-6.85-7.39-6.85s-8.83,3.23-8.83,10.72v14.49h-1.88v-26.15h1.88v5.61l1.19-2.73c1.98-2.48,4.76-3.57,7.84-3.57,5.41,0,8.58,2.98,9.08,7.94.15,1.34.2,2.18.2,4.32Z"/>
  </g>
  <text transform="translate(121.94 418.11)">
    <tspan x="0" y="0">A</tspan>
    <tspan  x="48.19" y="0">sar</tspan>
    <tspan  x="113.14" y="0"> </tspan><tspan  x="118.2" y="0">S</tspan><tspan  x="162.25" y="0">azan</tspan></text>
</svg>